<?xml version="1.0" standalone="no"?><!DOCTYPE svg PUBLIC "-//W3C//DTD SVG 1.1//EN" "http://www.w3.org/Graphics/SVG/1.1/DTD/svg11.dtd"><svg t="1611805791859" class="icon" viewBox="0 0 1024 1024" version="1.1" xmlns="http://www.w3.org/2000/svg" p-id="2807" xmlns:xlink="http://www.w3.org/1999/xlink" width="200" height="200"><defs><style type="text/css"></style></defs><path d="M426.097778 480.711111H190.008889c-26.168889 0-47.217778-21.048889-47.217778-47.217778V197.404444c0-26.168889 21.048889-47.217778 47.217778-47.217777h236.088889c26.168889 0 47.217778 21.048889 47.217778 47.217777v236.088889c0 26.168889-21.048889 47.217778-47.217778 47.217778zM426.097778 880.64H190.008889c-26.168889 0-47.217778-21.048889-47.217778-47.217778V597.333333c0-26.168889 21.048889-47.217778 47.217778-47.217777h236.088889c26.168889 0 47.217778 21.048889 47.217778 47.217777v236.088889c0 26.168889-21.048889 47.217778-47.217778 47.217778zM833.991111 480.711111h-236.088889c-26.168889 0-47.217778-21.048889-47.217778-47.217778V197.404444c0-26.168889 21.048889-47.217778 47.217778-47.217777h236.088889c26.168889 0 47.217778 21.048889 47.217778 47.217777v236.088889c0 26.168889-21.048889 47.217778-47.217778 47.217778zM833.991111 880.64h-236.088889c-26.168889 0-47.217778-21.048889-47.217778-47.217778V597.333333c0-26.168889 21.048889-47.217778 47.217778-47.217777h236.088889c26.168889 0 47.217778 21.048889 47.217778 47.217777v236.088889c0 26.168889-21.048889 47.217778-47.217778 47.217778z" p-id="2808"></path></svg>